<svg xmlns="http://www.w3.org/2000/svg" width="140" height="141" viewBox="0 0 140 141" fill="none">
    <path
        d="M15.1182 15.4094H18.8977V19.189H15.1182V15.4094ZM18.8977 15.4094H22.6772V19.189H18.8977V15.4094ZM22.6772 15.4094H26.4567V19.189H22.6772V15.4094ZM26.4567 15.4094H30.2363V19.189H26.4567V15.4094ZM30.2363 15.4094H34.0158V19.189H30.2363V15.4094ZM34.0158 15.4094H37.7953V19.189H34.0158V15.4094ZM37.7953 15.4094H41.5749V19.189H37.7953V15.4094ZM49.1339 15.4094H52.9134V19.189H49.1339V15.4094ZM52.9134 15.4094H56.693V19.189H52.9134V15.4094ZM56.693 15.4094H60.4725V19.189H56.693V15.4094ZM71.8111 15.4094H75.5906V19.189H71.8111V15.4094ZM79.3701 15.4094H83.1497V19.189H79.3701V15.4094ZM83.1497 15.4094H86.9292V19.189H83.1497V15.4094ZM86.9292 15.4094H90.7087V19.189H86.9292V15.4094ZM98.2678 15.4094H102.047V19.189H98.2678V15.4094ZM102.047 15.4094H105.827V19.189H102.047V15.4094ZM105.827 15.4094H109.606V19.189H105.827V15.4094ZM109.606 15.4094H113.386V19.189H109.606V15.4094ZM113.386 15.4094H117.165V19.189H113.386V15.4094ZM117.165 15.4094H120.945V19.189H117.165V15.4094ZM120.945 15.4094H124.724V19.189H120.945V15.4094ZM15.1182 19.189H18.8977V22.9685H15.1182V19.189ZM37.7953 19.189H41.5749V22.9685H37.7953V19.189ZM45.3544 19.189H49.1339V22.9685H45.3544V19.189ZM52.9134 19.189H56.693V22.9685H52.9134V19.189ZM56.693 19.189H60.4725V22.9685H56.693V19.189ZM68.0316 19.189H71.8111V22.9685H68.0316V19.189ZM71.8111 19.189H75.5906V22.9685H71.8111V19.189ZM79.3701 19.189H83.1497V22.9685H79.3701V19.189ZM83.1497 19.189H86.9292V22.9685H83.1497V19.189ZM86.9292 19.189H90.7087V22.9685H86.9292V19.189ZM90.7087 19.189H94.4882V22.9685H90.7087V19.189ZM98.2678 19.189H102.047V22.9685H98.2678V19.189ZM120.945 19.189H124.724V22.9685H120.945V19.189ZM15.1182 22.9685H18.8977V26.748H15.1182V22.9685ZM22.6772 22.9685H26.4567V26.748H22.6772V22.9685ZM26.4567 22.9685H30.2363V26.748H26.4567V22.9685ZM30.2363 22.9685H34.0158V26.748H30.2363V22.9685ZM37.7953 22.9685H41.5749V26.748H37.7953V22.9685ZM60.4725 22.9685H64.252V26.748H60.4725V22.9685ZM68.0316 22.9685H71.8111V26.748H68.0316V22.9685ZM71.8111 22.9685H75.5906V26.748H71.8111V22.9685ZM83.1497 22.9685H86.9292V26.748H83.1497V22.9685ZM98.2678 22.9685H102.047V26.748H98.2678V22.9685ZM105.827 22.9685H109.606V26.748H105.827V22.9685ZM109.606 22.9685H113.386V26.748H109.606V22.9685ZM113.386 22.9685H117.165V26.748H113.386V22.9685ZM120.945 22.9685H124.724V26.748H120.945V22.9685ZM15.1182 26.748H18.8977V30.5275H15.1182V26.748ZM22.6772 26.748H26.4567V30.5275H22.6772V26.748ZM26.4567 26.748H30.2363V30.5275H26.4567V26.748ZM30.2363 26.748H34.0158V30.5275H30.2363V26.748ZM37.7953 26.748H41.5749V30.5275H37.7953V26.748ZM56.693 26.748H60.4725V30.5275H56.693V26.748ZM68.0316 26.748H71.8111V30.5275H68.0316V26.748ZM86.9292 26.748H90.7087V30.5275H86.9292V26.748ZM98.2678 26.748H102.047V30.5275H98.2678V26.748ZM105.827 26.748H109.606V30.5275H105.827V26.748ZM109.606 26.748H113.386V30.5275H109.606V26.748ZM113.386 26.748H117.165V30.5275H113.386V26.748ZM120.945 26.748H124.724V30.5275H120.945V26.748ZM15.1182 30.5275H18.8977V34.3071H15.1182V30.5275ZM22.6772 30.5275H26.4567V34.3071H22.6772V30.5275ZM26.4567 30.5275H30.2363V34.3071H26.4567V30.5275ZM30.2363 30.5275H34.0158V34.3071H30.2363V30.5275ZM37.7953 30.5275H41.5749V34.3071H37.7953V30.5275ZM45.3544 30.5275H49.1339V34.3071H45.3544V30.5275ZM49.1339 30.5275H52.9134V34.3071H49.1339V30.5275ZM68.0316 30.5275H71.8111V34.3071H68.0316V30.5275ZM71.8111 30.5275H75.5906V34.3071H71.8111V30.5275ZM75.5906 30.5275H79.3701V34.3071H75.5906V30.5275ZM79.3701 30.5275H83.1497V34.3071H79.3701V30.5275ZM83.1497 30.5275H86.9292V34.3071H83.1497V30.5275ZM86.9292 30.5275H90.7087V34.3071H86.9292V30.5275ZM98.2678 30.5275H102.047V34.3071H98.2678V30.5275ZM105.827 30.5275H109.606V34.3071H105.827V30.5275ZM109.606 30.5275H113.386V34.3071H109.606V30.5275ZM113.386 30.5275H117.165V34.3071H113.386V30.5275ZM120.945 30.5275H124.724V34.3071H120.945V30.5275ZM15.1182 34.3071H18.8977V38.0866H15.1182V34.3071ZM37.7953 34.3071H41.5749V38.0866H37.7953V34.3071ZM49.1339 34.3071H52.9134V38.0866H49.1339V34.3071ZM52.9134 34.3071H56.693V38.0866H52.9134V34.3071ZM71.8111 34.3071H75.5906V38.0866H71.8111V34.3071ZM83.1497 34.3071H86.9292V38.0866H83.1497V34.3071ZM86.9292 34.3071H90.7087V38.0866H86.9292V34.3071ZM90.7087 34.3071H94.4882V38.0866H90.7087V34.3071ZM98.2678 34.3071H102.047V38.0866H98.2678V34.3071ZM120.945 34.3071H124.724V38.0866H120.945V34.3071ZM15.1182 38.0866H18.8977V41.8661H15.1182V38.0866ZM18.8977 38.0866H22.6772V41.8661H18.8977V38.0866ZM22.6772 38.0866H26.4567V41.8661H22.6772V38.0866ZM26.4567 38.0866H30.2363V41.8661H26.4567V38.0866ZM30.2363 38.0866H34.0158V41.8661H30.2363V38.0866ZM34.0158 38.0866H37.7953V41.8661H34.0158V38.0866ZM37.7953 38.0866H41.5749V41.8661H37.7953V38.0866ZM45.3544 38.0866H49.1339V41.8661H45.3544V38.0866ZM52.9134 38.0866H56.693V41.8661H52.9134V38.0866ZM60.4725 38.0866H64.252V41.8661H60.4725V38.0866ZM68.0316 38.0866H71.8111V41.8661H68.0316V38.0866ZM75.5906 38.0866H79.3701V41.8661H75.5906V38.0866ZM83.1497 38.0866H86.9292V41.8661H83.1497V38.0866ZM90.7087 38.0866H94.4882V41.8661H90.7087V38.0866ZM98.2678 38.0866H102.047V41.8661H98.2678V38.0866ZM102.047 38.0866H105.827V41.8661H102.047V38.0866ZM105.827 38.0866H109.606V41.8661H105.827V38.0866ZM109.606 38.0866H113.386V41.8661H109.606V38.0866ZM113.386 38.0866H117.165V41.8661H113.386V38.0866ZM117.165 38.0866H120.945V41.8661H117.165V38.0866ZM120.945 38.0866H124.724V41.8661H120.945V38.0866ZM52.9134 41.8661H56.693V45.6456H52.9134V41.8661ZM60.4725 41.8661H64.252V45.6456H60.4725V41.8661ZM64.252 41.8661H68.0316V45.6456H64.252V41.8661ZM68.0316 41.8661H71.8111V45.6456H68.0316V41.8661ZM71.8111 41.8661H75.5906V45.6456H71.8111V41.8661ZM75.5906 41.8661H79.3701V45.6456H75.5906V41.8661ZM79.3701 41.8661H83.1497V45.6456H79.3701V41.8661ZM15.1182 45.6456H18.8977V49.4252H15.1182V45.6456ZM22.6772 45.6456H26.4567V49.4252H22.6772V45.6456ZM30.2363 45.6456H34.0158V49.4252H30.2363V45.6456ZM37.7953 45.6456H41.5749V49.4252H37.7953V45.6456ZM49.1339 45.6456H52.9134V49.4252H49.1339V45.6456ZM52.9134 45.6456H56.693V49.4252H52.9134V45.6456ZM56.693 45.6456H60.4725V49.4252H56.693V45.6456ZM60.4725 45.6456H64.252V49.4252H60.4725V45.6456ZM64.252 45.6456H68.0316V49.4252H64.252V45.6456ZM79.3701 45.6456H83.1497V49.4252H79.3701V45.6456ZM90.7087 45.6456H94.4882V49.4252H90.7087V45.6456ZM105.827 45.6456H109.606V49.4252H105.827V45.6456ZM117.165 45.6456H120.945V49.4252H117.165V45.6456ZM15.1182 49.4252H18.8977V53.2047H15.1182V49.4252ZM18.8977 49.4252H22.6772V53.2047H18.8977V49.4252ZM22.6772 49.4252H26.4567V53.2047H22.6772V49.4252ZM26.4567 49.4252H30.2363V53.2047H26.4567V49.4252ZM41.5749 49.4252H45.3544V53.2047H41.5749V49.4252ZM52.9134 49.4252H56.693V53.2047H52.9134V49.4252ZM64.252 49.4252H68.0316V53.2047H64.252V49.4252ZM75.5906 49.4252H79.3701V53.2047H75.5906V49.4252ZM79.3701 49.4252H83.1497V53.2047H79.3701V49.4252ZM90.7087 49.4252H94.4882V53.2047H90.7087V49.4252ZM94.4882 49.4252H98.2678V53.2047H94.4882V49.4252ZM98.2678 49.4252H102.047V53.2047H98.2678V49.4252ZM109.606 49.4252H113.386V53.2047H109.606V49.4252ZM120.945 49.4252H124.724V53.2047H120.945V49.4252ZM22.6772 53.2047H26.4567V56.9842H22.6772V53.2047ZM26.4567 53.2047H30.2363V56.9842H26.4567V53.2047ZM30.2363 53.2047H34.0158V56.9842H30.2363V53.2047ZM34.0158 53.2047H37.7953V56.9842H34.0158V53.2047ZM37.7953 53.2047H41.5749V56.9842H37.7953V53.2047ZM41.5749 53.2047H45.3544V56.9842H41.5749V53.2047ZM45.3544 53.2047H49.1339V56.9842H45.3544V53.2047ZM52.9134 53.2047H56.693V56.9842H52.9134V53.2047ZM60.4725 53.2047H64.252V56.9842H60.4725V53.2047ZM64.252 53.2047H68.0316V56.9842H64.252V53.2047ZM83.1497 53.2047H86.9292V56.9842H83.1497V53.2047ZM90.7087 53.2047H94.4882V56.9842H90.7087V53.2047ZM98.2678 53.2047H102.047V56.9842H98.2678V53.2047ZM102.047 53.2047H105.827V56.9842H102.047V53.2047ZM105.827 53.2047H109.606V56.9842H105.827V53.2047ZM113.386 53.2047H117.165V56.9842H113.386V53.2047ZM117.165 53.2047H120.945V56.9842H117.165V53.2047ZM120.945 53.2047H124.724V56.9842H120.945V53.2047ZM26.4567 56.9842H30.2363V60.7638H26.4567V56.9842ZM34.0158 56.9842H37.7953V60.7638H34.0158V56.9842ZM45.3544 56.9842H49.1339V60.7638H45.3544V56.9842ZM49.1339 56.9842H52.9134V60.7638H49.1339V56.9842ZM52.9134 56.9842H56.693V60.7638H52.9134V56.9842ZM60.4725 56.9842H64.252V60.7638H60.4725V56.9842ZM64.252 56.9842H68.0316V60.7638H64.252V56.9842ZM79.3701 56.9842H83.1497V60.7638H79.3701V56.9842ZM83.1497 56.9842H86.9292V60.7638H83.1497V56.9842ZM98.2678 56.9842H102.047V60.7638H98.2678V56.9842ZM102.047 56.9842H105.827V60.7638H102.047V56.9842ZM117.165 56.9842H120.945V60.7638H117.165V56.9842ZM18.8977 60.7638H22.6772V64.5433H18.8977V60.7638ZM22.6772 60.7638H26.4567V64.5433H22.6772V60.7638ZM37.7953 60.7638H41.5749V64.5433H37.7953V60.7638ZM41.5749 60.7638H45.3544V64.5433H41.5749V60.7638ZM60.4725 60.7638H64.252V64.5433H60.4725V60.7638ZM68.0316 60.7638H71.8111V64.5433H68.0316V60.7638ZM75.5906 60.7638H79.3701V64.5433H75.5906V60.7638ZM79.3701 60.7638H83.1497V64.5433H79.3701V60.7638ZM94.4882 60.7638H98.2678V64.5433H94.4882V60.7638ZM98.2678 60.7638H102.047V64.5433H98.2678V60.7638ZM109.606 60.7638H113.386V64.5433H109.606V60.7638ZM117.165 60.7638H120.945V64.5433H117.165V60.7638ZM120.945 60.7638H124.724V64.5433H120.945V60.7638ZM15.1182 64.5433H18.8977V68.3228H15.1182V64.5433ZM18.8977 64.5433H22.6772V68.3228H18.8977V64.5433ZM22.6772 64.5433H26.4567V68.3228H22.6772V64.5433ZM30.2363 64.5433H34.0158V68.3228H30.2363V64.5433ZM41.5749 64.5433H45.3544V68.3228H41.5749V64.5433ZM45.3544 64.5433H49.1339V68.3228H45.3544V64.5433ZM52.9134 64.5433H56.693V68.3228H52.9134V64.5433ZM60.4725 64.5433H64.252V68.3228H60.4725V64.5433ZM75.5906 64.5433H79.3701V68.3228H75.5906V64.5433ZM79.3701 64.5433H83.1497V68.3228H79.3701V64.5433ZM83.1497 64.5433H86.9292V68.3228H83.1497V64.5433ZM90.7087 64.5433H94.4882V68.3228H90.7087V64.5433ZM94.4882 64.5433H98.2678V68.3228H94.4882V64.5433ZM98.2678 64.5433H102.047V68.3228H98.2678V64.5433ZM109.606 64.5433H113.386V68.3228H109.606V64.5433ZM120.945 64.5433H124.724V68.3228H120.945V64.5433ZM18.8977 68.3228H22.6772V72.1023H18.8977V68.3228ZM22.6772 68.3228H26.4567V72.1023H22.6772V68.3228ZM26.4567 68.3228H30.2363V72.1023H26.4567V68.3228ZM34.0158 68.3228H37.7953V72.1023H34.0158V68.3228ZM37.7953 68.3228H41.5749V72.1023H37.7953V68.3228ZM41.5749 68.3228H45.3544V72.1023H41.5749V68.3228ZM52.9134 68.3228H56.693V72.1023H52.9134V68.3228ZM56.693 68.3228H60.4725V72.1023H56.693V68.3228ZM64.252 68.3228H68.0316V72.1023H64.252V68.3228ZM83.1497 68.3228H86.9292V72.1023H83.1497V68.3228ZM109.606 68.3228H113.386V72.1023H109.606V68.3228ZM117.165 68.3228H120.945V72.1023H117.165V68.3228ZM120.945 68.3228H124.724V72.1023H120.945V68.3228ZM15.1182 72.1023H18.8977V75.8819H15.1182V72.1023ZM26.4567 72.1023H30.2363V75.8819H26.4567V72.1023ZM41.5749 72.1023H45.3544V75.8819H41.5749V72.1023ZM45.3544 72.1023H49.1339V75.8819H45.3544V72.1023ZM49.1339 72.1023H52.9134V75.8819H49.1339V72.1023ZM71.8111 72.1023H75.5906V75.8819H71.8111V72.1023ZM79.3701 72.1023H83.1497V75.8819H79.3701V72.1023ZM86.9292 72.1023H90.7087V75.8819H86.9292V72.1023ZM90.7087 72.1023H94.4882V75.8819H90.7087V72.1023ZM94.4882 72.1023H98.2678V75.8819H94.4882V72.1023ZM102.047 72.1023H105.827V75.8819H102.047V72.1023ZM105.827 72.1023H109.606V75.8819H105.827V72.1023ZM109.606 72.1023H113.386V75.8819H109.606V72.1023ZM117.165 72.1023H120.945V75.8819H117.165V72.1023ZM15.1182 75.8819H18.8977V79.6614H15.1182V75.8819ZM18.8977 75.8819H22.6772V79.6614H18.8977V75.8819ZM22.6772 75.8819H26.4567V79.6614H22.6772V75.8819ZM30.2363 75.8819H34.0158V79.6614H30.2363V75.8819ZM37.7953 75.8819H41.5749V79.6614H37.7953V75.8819ZM45.3544 75.8819H49.1339V79.6614H45.3544V75.8819ZM49.1339 75.8819H52.9134V79.6614H49.1339V75.8819ZM60.4725 75.8819H64.252V79.6614H60.4725V75.8819ZM75.5906 75.8819H79.3701V79.6614H75.5906V75.8819ZM79.3701 75.8819H83.1497V79.6614H79.3701V75.8819ZM90.7087 75.8819H94.4882V79.6614H90.7087V75.8819ZM94.4882 75.8819H98.2678V79.6614H94.4882V75.8819ZM98.2678 75.8819H102.047V79.6614H98.2678V75.8819ZM102.047 75.8819H105.827V79.6614H102.047V75.8819ZM109.606 75.8819H113.386V79.6614H109.606V75.8819ZM117.165 75.8819H120.945V79.6614H117.165V75.8819ZM120.945 75.8819H124.724V79.6614H120.945V75.8819ZM18.8977 79.6614H22.6772V83.4409H18.8977V79.6614ZM26.4567 79.6614H30.2363V83.4409H26.4567V79.6614ZM30.2363 79.6614H34.0158V83.4409H30.2363V79.6614ZM34.0158 79.6614H37.7953V83.4409H34.0158V79.6614ZM41.5749 79.6614H45.3544V83.4409H41.5749V79.6614ZM45.3544 79.6614H49.1339V83.4409H45.3544V79.6614ZM49.1339 79.6614H52.9134V83.4409H49.1339V79.6614ZM52.9134 79.6614H56.693V83.4409H52.9134V79.6614ZM60.4725 79.6614H64.252V83.4409H60.4725V79.6614ZM64.252 79.6614H68.0316V83.4409H64.252V79.6614ZM75.5906 79.6614H79.3701V83.4409H75.5906V79.6614ZM79.3701 79.6614H83.1497V83.4409H79.3701V79.6614ZM83.1497 79.6614H86.9292V83.4409H83.1497V79.6614ZM90.7087 79.6614H94.4882V83.4409H90.7087V79.6614ZM94.4882 79.6614H98.2678V83.4409H94.4882V79.6614ZM98.2678 79.6614H102.047V83.4409H98.2678V79.6614ZM109.606 79.6614H113.386V83.4409H109.606V79.6614ZM113.386 79.6614H117.165V83.4409H113.386V79.6614ZM120.945 79.6614H124.724V83.4409H120.945V79.6614ZM15.1182 83.4409H18.8977V87.2204H15.1182V83.4409ZM26.4567 83.4409H30.2363V87.2204H26.4567V83.4409ZM30.2363 83.4409H34.0158V87.2204H30.2363V83.4409ZM37.7953 83.4409H41.5749V87.2204H37.7953V83.4409ZM41.5749 83.4409H45.3544V87.2204H41.5749V83.4409ZM45.3544 83.4409H49.1339V87.2204H45.3544V83.4409ZM56.693 83.4409H60.4725V87.2204H56.693V83.4409ZM60.4725 83.4409H64.252V87.2204H60.4725V83.4409ZM68.0316 83.4409H71.8111V87.2204H68.0316V83.4409ZM75.5906 83.4409H79.3701V87.2204H75.5906V83.4409ZM83.1497 83.4409H86.9292V87.2204H83.1497V83.4409ZM90.7087 83.4409H94.4882V87.2204H90.7087V83.4409ZM94.4882 83.4409H98.2678V87.2204H94.4882V83.4409ZM105.827 83.4409H109.606V87.2204H105.827V83.4409ZM117.165 83.4409H120.945V87.2204H117.165V83.4409ZM120.945 83.4409H124.724V87.2204H120.945V83.4409ZM18.8977 87.2204H22.6772V91H18.8977V87.2204ZM22.6772 87.2204H26.4567V91H22.6772V87.2204ZM41.5749 87.2204H45.3544V91H41.5749V87.2204ZM45.3544 87.2204H49.1339V91H45.3544V87.2204ZM52.9134 87.2204H56.693V91H52.9134V87.2204ZM60.4725 87.2204H64.252V91H60.4725V87.2204ZM64.252 87.2204H68.0316V91H64.252V87.2204ZM68.0316 87.2204H71.8111V91H68.0316V87.2204ZM71.8111 87.2204H75.5906V91H71.8111V87.2204ZM75.5906 87.2204H79.3701V91H75.5906V87.2204ZM79.3701 87.2204H83.1497V91H79.3701V87.2204ZM90.7087 87.2204H94.4882V91H90.7087V87.2204ZM94.4882 87.2204H98.2678V91H94.4882V87.2204ZM102.047 87.2204H105.827V91H102.047V87.2204ZM105.827 87.2204H109.606V91H105.827V87.2204ZM109.606 87.2204H113.386V91H109.606V87.2204ZM117.165 87.2204H120.945V91H117.165V87.2204ZM15.1182 91H18.8977V94.7795H15.1182V91ZM26.4567 91H30.2363V94.7795H26.4567V91ZM37.7953 91H41.5749V94.7795H37.7953V91ZM45.3544 91H49.1339V94.7795H45.3544V91ZM52.9134 91H56.693V94.7795H52.9134V91ZM68.0316 91H71.8111V94.7795H68.0316V91ZM79.3701 91H83.1497V94.7795H79.3701V91ZM83.1497 91H86.9292V94.7795H83.1497V91ZM90.7087 91H94.4882V94.7795H90.7087V91ZM94.4882 91H98.2678V94.7795H94.4882V91ZM98.2678 91H102.047V94.7795H98.2678V91ZM102.047 91H105.827V94.7795H102.047V91ZM105.827 91H109.606V94.7795H105.827V91ZM45.3544 94.7795H49.1339V98.559H45.3544V94.7795ZM49.1339 94.7795H52.9134V98.559H49.1339V94.7795ZM68.0316 94.7795H71.8111V98.559H68.0316V94.7795ZM75.5906 94.7795H79.3701V98.559H75.5906V94.7795ZM90.7087 94.7795H94.4882V98.559H90.7087V94.7795ZM105.827 94.7795H109.606V98.559H105.827V94.7795ZM113.386 94.7795H117.165V98.559H113.386V94.7795ZM117.165 94.7795H120.945V98.559H117.165V94.7795ZM120.945 94.7795H124.724V98.559H120.945V94.7795ZM15.1182 98.559H18.8977V102.339H15.1182V98.559ZM18.8977 98.559H22.6772V102.339H18.8977V98.559ZM22.6772 98.559H26.4567V102.339H22.6772V98.559ZM26.4567 98.559H30.2363V102.339H26.4567V98.559ZM30.2363 98.559H34.0158V102.339H30.2363V98.559ZM34.0158 98.559H37.7953V102.339H34.0158V98.559ZM37.7953 98.559H41.5749V102.339H37.7953V98.559ZM49.1339 98.559H52.9134V102.339H49.1339V98.559ZM52.9134 98.559H56.693V102.339H52.9134V98.559ZM56.693 98.559H60.4725V102.339H56.693V98.559ZM60.4725 98.559H64.252V102.339H60.4725V98.559ZM64.252 98.559H68.0316V102.339H64.252V98.559ZM75.5906 98.559H79.3701V102.339H75.5906V98.559ZM79.3701 98.559H83.1497V102.339H79.3701V98.559ZM86.9292 98.559H90.7087V102.339H86.9292V98.559ZM90.7087 98.559H94.4882V102.339H90.7087V98.559ZM98.2678 98.559H102.047V102.339H98.2678V98.559ZM105.827 98.559H109.606V102.339H105.827V98.559ZM109.606 98.559H113.386V102.339H109.606V98.559ZM117.165 98.559H120.945V102.339H117.165V98.559ZM120.945 98.559H124.724V102.339H120.945V98.559ZM15.1182 102.339H18.8977V106.118H15.1182V102.339ZM37.7953 102.339H41.5749V106.118H37.7953V102.339ZM49.1339 102.339H52.9134V106.118H49.1339V102.339ZM56.693 102.339H60.4725V106.118H56.693V102.339ZM60.4725 102.339H64.252V106.118H60.4725V102.339ZM75.5906 102.339H79.3701V106.118H75.5906V102.339ZM79.3701 102.339H83.1497V106.118H79.3701V102.339ZM83.1497 102.339H86.9292V106.118H83.1497V102.339ZM90.7087 102.339H94.4882V106.118H90.7087V102.339ZM105.827 102.339H109.606V106.118H105.827V102.339ZM109.606 102.339H113.386V106.118H109.606V102.339ZM120.945 102.339H124.724V106.118H120.945V102.339ZM15.1182 106.118H18.8977V109.898H15.1182V106.118ZM22.6772 106.118H26.4567V109.898H22.6772V106.118ZM26.4567 106.118H30.2363V109.898H26.4567V106.118ZM30.2363 106.118H34.0158V109.898H30.2363V106.118ZM37.7953 106.118H41.5749V109.898H37.7953V106.118ZM45.3544 106.118H49.1339V109.898H45.3544V106.118ZM49.1339 106.118H52.9134V109.898H49.1339V106.118ZM71.8111 106.118H75.5906V109.898H71.8111V106.118ZM75.5906 106.118H79.3701V109.898H75.5906V106.118ZM79.3701 106.118H83.1497V109.898H79.3701V106.118ZM90.7087 106.118H94.4882V109.898H90.7087V106.118ZM94.4882 106.118H98.2678V109.898H94.4882V106.118ZM98.2678 106.118H102.047V109.898H98.2678V106.118ZM102.047 106.118H105.827V109.898H102.047V106.118ZM105.827 106.118H109.606V109.898H105.827V106.118ZM117.165 106.118H120.945V109.898H117.165V106.118ZM120.945 106.118H124.724V109.898H120.945V106.118ZM15.1182 109.898H18.8977V113.677H15.1182V109.898ZM22.6772 109.898H26.4567V113.677H22.6772V109.898ZM26.4567 109.898H30.2363V113.677H26.4567V109.898ZM30.2363 109.898H34.0158V113.677H30.2363V109.898ZM37.7953 109.898H41.5749V113.677H37.7953V109.898ZM52.9134 109.898H56.693V113.677H52.9134V109.898ZM56.693 109.898H60.4725V113.677H56.693V109.898ZM64.252 109.898H68.0316V113.677H64.252V109.898ZM75.5906 109.898H79.3701V113.677H75.5906V109.898ZM79.3701 109.898H83.1497V113.677H79.3701V109.898ZM86.9292 109.898H90.7087V113.677H86.9292V109.898ZM90.7087 109.898H94.4882V113.677H90.7087V109.898ZM105.827 109.898H109.606V113.677H105.827V109.898ZM113.386 109.898H117.165V113.677H113.386V109.898ZM117.165 109.898H120.945V113.677H117.165V109.898ZM120.945 109.898H124.724V113.677H120.945V109.898ZM15.1182 113.677H18.8977V117.457H15.1182V113.677ZM22.6772 113.677H26.4567V117.457H22.6772V113.677ZM26.4567 113.677H30.2363V117.457H26.4567V113.677ZM30.2363 113.677H34.0158V117.457H30.2363V113.677ZM37.7953 113.677H41.5749V117.457H37.7953V113.677ZM45.3544 113.677H49.1339V117.457H45.3544V113.677ZM52.9134 113.677H56.693V117.457H52.9134V113.677ZM56.693 113.677H60.4725V117.457H56.693V113.677ZM60.4725 113.677H64.252V117.457H60.4725V113.677ZM68.0316 113.677H71.8111V117.457H68.0316V113.677ZM79.3701 113.677H83.1497V117.457H79.3701V113.677ZM83.1497 113.677H86.9292V117.457H83.1497V113.677ZM86.9292 113.677H90.7087V117.457H86.9292V113.677ZM94.4882 113.677H98.2678V117.457H94.4882V113.677ZM102.047 113.677H105.827V117.457H102.047V113.677ZM105.827 113.677H109.606V117.457H105.827V113.677ZM109.606 113.677H113.386V117.457H109.606V113.677ZM120.945 113.677H124.724V117.457H120.945V113.677ZM15.1182 117.457H18.8977V121.236H15.1182V117.457ZM37.7953 117.457H41.5749V121.236H37.7953V117.457ZM56.693 117.457H60.4725V121.236H56.693V117.457ZM75.5906 117.457H79.3701V121.236H75.5906V117.457ZM79.3701 117.457H83.1497V121.236H79.3701V117.457ZM83.1497 117.457H86.9292V121.236H83.1497V117.457ZM86.9292 117.457H90.7087V121.236H86.9292V117.457ZM90.7087 117.457H94.4882V121.236H90.7087V117.457ZM94.4882 117.457H98.2678V121.236H94.4882V117.457ZM98.2678 117.457H102.047V121.236H98.2678V117.457ZM117.165 117.457H120.945V121.236H117.165V117.457ZM15.1182 121.236H18.8977V125.016H15.1182V121.236ZM18.8977 121.236H22.6772V125.016H18.8977V121.236ZM22.6772 121.236H26.4567V125.016H22.6772V121.236ZM26.4567 121.236H30.2363V125.016H26.4567V121.236ZM30.2363 121.236H34.0158V125.016H30.2363V121.236ZM34.0158 121.236H37.7953V125.016H34.0158V121.236ZM37.7953 121.236H41.5749V125.016H37.7953V121.236ZM45.3544 121.236H49.1339V125.016H45.3544V121.236ZM49.1339 121.236H52.9134V125.016H49.1339V121.236ZM64.252 121.236H68.0316V125.016H64.252V121.236ZM71.8111 121.236H75.5906V125.016H71.8111V121.236ZM75.5906 121.236H79.3701V125.016H75.5906V121.236ZM79.3701 121.236H83.1497V125.016H79.3701V121.236ZM90.7087 121.236H94.4882V125.016H90.7087V121.236ZM94.4882 121.236H98.2678V125.016H94.4882V121.236ZM98.2678 121.236H102.047V125.016H98.2678V121.236ZM102.047 121.236H105.827V125.016H102.047V121.236ZM105.827 121.236H109.606V125.016H105.827V121.236ZM117.165 121.236H120.945V125.016H117.165V121.236ZM120.945 121.236H124.724V125.016H120.945V121.236Z"
        fill="#171717" />
</svg>