<svg xmlns="http://www.w3.org/2000/svg" width="140" height="140" viewBox="0 0 140 140" fill="none">
    <path
        d="M15.1181 15.1182H18.8976V18.8977H15.1181V15.1182ZM18.8976 15.1182H22.6772V18.8977H18.8976V15.1182ZM22.6772 15.1182H26.4567V18.8977H22.6772V15.1182ZM26.4567 15.1182H30.2362V18.8977H26.4567V15.1182ZM30.2362 15.1182H34.0157V18.8977H30.2362V15.1182ZM34.0157 15.1182H37.7953V18.8977H34.0157V15.1182ZM37.7953 15.1182H41.5748V18.8977H37.7953V15.1182ZM56.6929 15.1182H60.4724V18.8977H56.6929V15.1182ZM64.252 15.1182H68.0315V18.8977H64.252V15.1182ZM68.0315 15.1182H71.811V18.8977H68.0315V15.1182ZM75.5905 15.1182H79.3701V18.8977H75.5905V15.1182ZM79.3701 15.1182H83.1496V18.8977H79.3701V15.1182ZM83.1496 15.1182H86.9291V18.8977H83.1496V15.1182ZM86.9291 15.1182H90.7087V18.8977H86.9291V15.1182ZM98.2677 15.1182H102.047V18.8977H98.2677V15.1182ZM102.047 15.1182H105.827V18.8977H102.047V15.1182ZM105.827 15.1182H109.606V18.8977H105.827V15.1182ZM109.606 15.1182H113.386V18.8977H109.606V15.1182ZM113.386 15.1182H117.165V18.8977H113.386V15.1182ZM117.165 15.1182H120.945V18.8977H117.165V15.1182ZM120.945 15.1182H124.724V18.8977H120.945V15.1182ZM15.1181 18.8977H18.8976V22.6772H15.1181V18.8977ZM37.7953 18.8977H41.5748V22.6772H37.7953V18.8977ZM52.9134 18.8977H56.6929V22.6772H52.9134V18.8977ZM56.6929 18.8977H60.4724V22.6772H56.6929V18.8977ZM64.252 18.8977H68.0315V22.6772H64.252V18.8977ZM68.0315 18.8977H71.811V22.6772H68.0315V18.8977ZM71.811 18.8977H75.5905V22.6772H71.811V18.8977ZM83.1496 18.8977H86.9291V22.6772H83.1496V18.8977ZM90.7087 18.8977H94.4882V22.6772H90.7087V18.8977ZM98.2677 18.8977H102.047V22.6772H98.2677V18.8977ZM120.945 18.8977H124.724V22.6772H120.945V18.8977ZM15.1181 22.6772H18.8976V26.4567H15.1181V22.6772ZM22.6772 22.6772H26.4567V26.4567H22.6772V22.6772ZM26.4567 22.6772H30.2362V26.4567H26.4567V22.6772ZM30.2362 22.6772H34.0157V26.4567H30.2362V22.6772ZM37.7953 22.6772H41.5748V26.4567H37.7953V22.6772ZM49.1339 22.6772H52.9134V26.4567H49.1339V22.6772ZM56.6929 22.6772H60.4724V26.4567H56.6929V22.6772ZM64.252 22.6772H68.0315V26.4567H64.252V22.6772ZM75.5905 22.6772H79.3701V26.4567H75.5905V22.6772ZM79.3701 22.6772H83.1496V26.4567H79.3701V22.6772ZM86.9291 22.6772H90.7087V26.4567H86.9291V22.6772ZM98.2677 22.6772H102.047V26.4567H98.2677V22.6772ZM105.827 22.6772H109.606V26.4567H105.827V22.6772ZM109.606 22.6772H113.386V26.4567H109.606V22.6772ZM113.386 22.6772H117.165V26.4567H113.386V22.6772ZM120.945 22.6772H124.724V26.4567H120.945V22.6772ZM15.1181 26.4567H18.8976V30.2363H15.1181V26.4567ZM22.6772 26.4567H26.4567V30.2363H22.6772V26.4567ZM26.4567 26.4567H30.2362V30.2363H26.4567V26.4567ZM30.2362 26.4567H34.0157V30.2363H30.2362V26.4567ZM37.7953 26.4567H41.5748V30.2363H37.7953V26.4567ZM49.1339 26.4567H52.9134V30.2363H49.1339V26.4567ZM52.9134 26.4567H56.6929V30.2363H52.9134V26.4567ZM60.4724 26.4567H64.252V30.2363H60.4724V26.4567ZM64.252 26.4567H68.0315V30.2363H64.252V26.4567ZM68.0315 26.4567H71.811V30.2363H68.0315V26.4567ZM75.5905 26.4567H79.3701V30.2363H75.5905V26.4567ZM83.1496 26.4567H86.9291V30.2363H83.1496V26.4567ZM86.9291 26.4567H90.7087V30.2363H86.9291V26.4567ZM98.2677 26.4567H102.047V30.2363H98.2677V26.4567ZM105.827 26.4567H109.606V30.2363H105.827V26.4567ZM109.606 26.4567H113.386V30.2363H109.606V26.4567ZM113.386 26.4567H117.165V30.2363H113.386V26.4567ZM120.945 26.4567H124.724V30.2363H120.945V26.4567ZM15.1181 30.2363H18.8976V34.0158H15.1181V30.2363ZM22.6772 30.2363H26.4567V34.0158H22.6772V30.2363ZM26.4567 30.2363H30.2362V34.0158H26.4567V30.2363ZM30.2362 30.2363H34.0157V34.0158H30.2362V30.2363ZM37.7953 30.2363H41.5748V34.0158H37.7953V30.2363ZM49.1339 30.2363H52.9134V34.0158H49.1339V30.2363ZM52.9134 30.2363H56.6929V34.0158H52.9134V30.2363ZM64.252 30.2363H68.0315V34.0158H64.252V30.2363ZM68.0315 30.2363H71.811V34.0158H68.0315V30.2363ZM71.811 30.2363H75.5905V34.0158H71.811V30.2363ZM75.5905 30.2363H79.3701V34.0158H75.5905V30.2363ZM79.3701 30.2363H83.1496V34.0158H79.3701V30.2363ZM83.1496 30.2363H86.9291V34.0158H83.1496V30.2363ZM98.2677 30.2363H102.047V34.0158H98.2677V30.2363ZM105.827 30.2363H109.606V34.0158H105.827V30.2363ZM109.606 30.2363H113.386V34.0158H109.606V30.2363ZM113.386 30.2363H117.165V34.0158H113.386V30.2363ZM120.945 30.2363H124.724V34.0158H120.945V30.2363ZM15.1181 34.0158H18.8976V37.7953H15.1181V34.0158ZM37.7953 34.0158H41.5748V37.7953H37.7953V34.0158ZM45.3543 34.0158H49.1339V37.7953H45.3543V34.0158ZM49.1339 34.0158H52.9134V37.7953H49.1339V34.0158ZM60.4724 34.0158H64.252V37.7953H60.4724V34.0158ZM64.252 34.0158H68.0315V37.7953H64.252V34.0158ZM68.0315 34.0158H71.811V37.7953H68.0315V34.0158ZM71.811 34.0158H75.5905V37.7953H71.811V34.0158ZM83.1496 34.0158H86.9291V37.7953H83.1496V34.0158ZM86.9291 34.0158H90.7087V37.7953H86.9291V34.0158ZM90.7087 34.0158H94.4882V37.7953H90.7087V34.0158ZM98.2677 34.0158H102.047V37.7953H98.2677V34.0158ZM120.945 34.0158H124.724V37.7953H120.945V34.0158ZM15.1181 37.7953H18.8976V41.5749H15.1181V37.7953ZM18.8976 37.7953H22.6772V41.5749H18.8976V37.7953ZM22.6772 37.7953H26.4567V41.5749H22.6772V37.7953ZM26.4567 37.7953H30.2362V41.5749H26.4567V37.7953ZM30.2362 37.7953H34.0157V41.5749H30.2362V37.7953ZM34.0157 37.7953H37.7953V41.5749H34.0157V37.7953ZM37.7953 37.7953H41.5748V41.5749H37.7953V37.7953ZM45.3543 37.7953H49.1339V41.5749H45.3543V37.7953ZM52.9134 37.7953H56.6929V41.5749H52.9134V37.7953ZM60.4724 37.7953H64.252V41.5749H60.4724V37.7953ZM68.0315 37.7953H71.811V41.5749H68.0315V37.7953ZM75.5905 37.7953H79.3701V41.5749H75.5905V37.7953ZM83.1496 37.7953H86.9291V41.5749H83.1496V37.7953ZM90.7087 37.7953H94.4882V41.5749H90.7087V37.7953ZM98.2677 37.7953H102.047V41.5749H98.2677V37.7953ZM102.047 37.7953H105.827V41.5749H102.047V37.7953ZM105.827 37.7953H109.606V41.5749H105.827V37.7953ZM109.606 37.7953H113.386V41.5749H109.606V37.7953ZM113.386 37.7953H117.165V41.5749H113.386V37.7953ZM117.165 37.7953H120.945V41.5749H117.165V37.7953ZM120.945 37.7953H124.724V41.5749H120.945V37.7953ZM49.1339 41.5749H52.9134V45.3544H49.1339V41.5749ZM56.6929 41.5749H60.4724V45.3544H56.6929V41.5749ZM60.4724 41.5749H64.252V45.3544H60.4724V41.5749ZM68.0315 41.5749H71.811V45.3544H68.0315V41.5749ZM71.811 41.5749H75.5905V45.3544H71.811V41.5749ZM79.3701 41.5749H83.1496V45.3544H79.3701V41.5749ZM83.1496 41.5749H86.9291V45.3544H83.1496V41.5749ZM86.9291 41.5749H90.7087V45.3544H86.9291V41.5749ZM90.7087 41.5749H94.4882V45.3544H90.7087V41.5749ZM15.1181 45.3544H18.8976V49.1339H15.1181V45.3544ZM26.4567 45.3544H30.2362V49.1339H26.4567V45.3544ZM34.0157 45.3544H37.7953V49.1339H34.0157V45.3544ZM37.7953 45.3544H41.5748V49.1339H37.7953V45.3544ZM45.3543 45.3544H49.1339V49.1339H45.3543V45.3544ZM49.1339 45.3544H52.9134V49.1339H49.1339V45.3544ZM52.9134 45.3544H56.6929V49.1339H52.9134V45.3544ZM71.811 45.3544H75.5905V49.1339H71.811V45.3544ZM75.5905 45.3544H79.3701V49.1339H75.5905V45.3544ZM83.1496 45.3544H86.9291V49.1339H83.1496V45.3544ZM86.9291 45.3544H90.7087V49.1339H86.9291V45.3544ZM94.4882 45.3544H98.2677V49.1339H94.4882V45.3544ZM102.047 45.3544H105.827V49.1339H102.047V45.3544ZM18.8976 49.1339H22.6772V52.9134H18.8976V49.1339ZM22.6772 49.1339H26.4567V52.9134H22.6772V49.1339ZM26.4567 49.1339H30.2362V52.9134H26.4567V49.1339ZM30.2362 49.1339H34.0157V52.9134H30.2362V49.1339ZM34.0157 49.1339H37.7953V52.9134H34.0157V49.1339ZM41.5748 49.1339H45.3543V52.9134H41.5748V49.1339ZM45.3543 49.1339H49.1339V52.9134H45.3543V49.1339ZM49.1339 49.1339H52.9134V52.9134H49.1339V49.1339ZM68.0315 49.1339H71.811V52.9134H68.0315V49.1339ZM75.5905 49.1339H79.3701V52.9134H75.5905V49.1339ZM94.4882 49.1339H98.2677V52.9134H94.4882V49.1339ZM98.2677 49.1339H102.047V52.9134H98.2677V49.1339ZM109.606 49.1339H113.386V52.9134H109.606V49.1339ZM120.945 49.1339H124.724V52.9134H120.945V49.1339ZM18.8976 52.9134H22.6772V56.693H18.8976V52.9134ZM22.6772 52.9134H26.4567V56.693H22.6772V52.9134ZM30.2362 52.9134H34.0157V56.693H30.2362V52.9134ZM34.0157 52.9134H37.7953V56.693H34.0157V52.9134ZM37.7953 52.9134H41.5748V56.693H37.7953V52.9134ZM45.3543 52.9134H49.1339V56.693H45.3543V52.9134ZM52.9134 52.9134H56.6929V56.693H52.9134V52.9134ZM79.3701 52.9134H83.1496V56.693H79.3701V52.9134ZM86.9291 52.9134H90.7087V56.693H86.9291V52.9134ZM90.7087 52.9134H94.4882V56.693H90.7087V52.9134ZM94.4882 52.9134H98.2677V56.693H94.4882V52.9134ZM98.2677 52.9134H102.047V56.693H98.2677V52.9134ZM109.606 52.9134H113.386V56.693H109.606V52.9134ZM113.386 52.9134H117.165V56.693H113.386V52.9134ZM117.165 52.9134H120.945V56.693H117.165V52.9134ZM22.6772 56.693H26.4567V60.4725H22.6772V56.693ZM41.5748 56.693H45.3543V60.4725H41.5748V56.693ZM45.3543 56.693H49.1339V60.4725H45.3543V56.693ZM49.1339 56.693H52.9134V60.4725H49.1339V56.693ZM60.4724 56.693H64.252V60.4725H60.4724V56.693ZM68.0315 56.693H71.811V60.4725H68.0315V56.693ZM71.811 56.693H75.5905V60.4725H71.811V56.693ZM83.1496 56.693H86.9291V60.4725H83.1496V56.693ZM94.4882 56.693H98.2677V60.4725H94.4882V56.693ZM102.047 56.693H105.827V60.4725H102.047V56.693ZM105.827 56.693H109.606V60.4725H105.827V56.693ZM113.386 56.693H117.165V60.4725H113.386V56.693ZM117.165 56.693H120.945V60.4725H117.165V56.693ZM26.4567 60.4725H30.2362V64.252H26.4567V60.4725ZM30.2362 60.4725H34.0157V64.252H30.2362V60.4725ZM34.0157 60.4725H37.7953V64.252H34.0157V60.4725ZM37.7953 60.4725H41.5748V64.252H37.7953V60.4725ZM45.3543 60.4725H49.1339V64.252H45.3543V60.4725ZM49.1339 60.4725H52.9134V64.252H49.1339V60.4725ZM52.9134 60.4725H56.6929V64.252H52.9134V60.4725ZM71.811 60.4725H75.5905V64.252H71.811V60.4725ZM75.5905 60.4725H79.3701V64.252H75.5905V60.4725ZM79.3701 60.4725H83.1496V64.252H79.3701V60.4725ZM86.9291 60.4725H90.7087V64.252H86.9291V60.4725ZM90.7087 60.4725H94.4882V64.252H90.7087V60.4725ZM94.4882 60.4725H98.2677V64.252H94.4882V60.4725ZM98.2677 60.4725H102.047V64.252H98.2677V60.4725ZM109.606 60.4725H113.386V64.252H109.606V60.4725ZM117.165 60.4725H120.945V64.252H117.165V60.4725ZM120.945 60.4725H124.724V64.252H120.945V60.4725ZM15.1181 64.252H18.8976V68.0316H15.1181V64.252ZM18.8976 64.252H22.6772V68.0316H18.8976V64.252ZM30.2362 64.252H34.0157V68.0316H30.2362V64.252ZM41.5748 64.252H45.3543V68.0316H41.5748V64.252ZM52.9134 64.252H56.6929V68.0316H52.9134V64.252ZM56.6929 64.252H60.4724V68.0316H56.6929V64.252ZM86.9291 64.252H90.7087V68.0316H86.9291V64.252ZM90.7087 64.252H94.4882V68.0316H90.7087V64.252ZM94.4882 64.252H98.2677V68.0316H94.4882V64.252ZM102.047 64.252H105.827V68.0316H102.047V64.252ZM22.6772 68.0316H26.4567V71.8111H22.6772V68.0316ZM26.4567 68.0316H30.2362V71.8111H26.4567V68.0316ZM34.0157 68.0316H37.7953V71.8111H34.0157V68.0316ZM37.7953 68.0316H41.5748V71.8111H37.7953V68.0316ZM45.3543 68.0316H49.1339V71.8111H45.3543V68.0316ZM49.1339 68.0316H52.9134V71.8111H49.1339V68.0316ZM52.9134 68.0316H56.6929V71.8111H52.9134V68.0316ZM56.6929 68.0316H60.4724V71.8111H56.6929V68.0316ZM60.4724 68.0316H64.252V71.8111H60.4724V68.0316ZM79.3701 68.0316H83.1496V71.8111H79.3701V68.0316ZM83.1496 68.0316H86.9291V71.8111H83.1496V68.0316ZM90.7087 68.0316H94.4882V71.8111H90.7087V68.0316ZM109.606 68.0316H113.386V71.8111H109.606V68.0316ZM113.386 68.0316H117.165V71.8111H113.386V68.0316ZM117.165 68.0316H120.945V71.8111H117.165V68.0316ZM120.945 68.0316H124.724V71.8111H120.945V68.0316ZM15.1181 71.8111H18.8976V75.5906H15.1181V71.8111ZM18.8976 71.8111H22.6772V75.5906H18.8976V71.8111ZM30.2362 71.8111H34.0157V75.5906H30.2362V71.8111ZM34.0157 71.8111H37.7953V75.5906H34.0157V71.8111ZM45.3543 71.8111H49.1339V75.5906H45.3543V71.8111ZM64.252 71.8111H68.0315V75.5906H64.252V71.8111ZM68.0315 71.8111H71.811V75.5906H68.0315V71.8111ZM79.3701 71.8111H83.1496V75.5906H79.3701V71.8111ZM83.1496 71.8111H86.9291V75.5906H83.1496V71.8111ZM86.9291 71.8111H90.7087V75.5906H86.9291V71.8111ZM109.606 71.8111H113.386V75.5906H109.606V71.8111ZM117.165 71.8111H120.945V75.5906H117.165V71.8111ZM15.1181 75.5906H18.8976V79.3701H15.1181V75.5906ZM18.8976 75.5906H22.6772V79.3701H18.8976V75.5906ZM22.6772 75.5906H26.4567V79.3701H22.6772V75.5906ZM26.4567 75.5906H30.2362V79.3701H26.4567V75.5906ZM30.2362 75.5906H34.0157V79.3701H30.2362V75.5906ZM37.7953 75.5906H41.5748V79.3701H37.7953V75.5906ZM41.5748 75.5906H45.3543V79.3701H41.5748V75.5906ZM45.3543 75.5906H49.1339V79.3701H45.3543V75.5906ZM52.9134 75.5906H56.6929V79.3701H52.9134V75.5906ZM56.6929 75.5906H60.4724V79.3701H56.6929V75.5906ZM60.4724 75.5906H64.252V79.3701H60.4724V75.5906ZM64.252 75.5906H68.0315V79.3701H64.252V75.5906ZM68.0315 75.5906H71.811V79.3701H68.0315V75.5906ZM79.3701 75.5906H83.1496V79.3701H79.3701V75.5906ZM90.7087 75.5906H94.4882V79.3701H90.7087V75.5906ZM94.4882 75.5906H98.2677V79.3701H94.4882V75.5906ZM102.047 75.5906H105.827V79.3701H102.047V75.5906ZM117.165 75.5906H120.945V79.3701H117.165V75.5906ZM18.8976 79.3701H22.6772V83.1497H18.8976V79.3701ZM22.6772 79.3701H26.4567V83.1497H22.6772V79.3701ZM26.4567 79.3701H30.2362V83.1497H26.4567V79.3701ZM30.2362 79.3701H34.0157V83.1497H30.2362V79.3701ZM41.5748 79.3701H45.3543V83.1497H41.5748V79.3701ZM45.3543 79.3701H49.1339V83.1497H45.3543V79.3701ZM49.1339 79.3701H52.9134V83.1497H49.1339V79.3701ZM52.9134 79.3701H56.6929V83.1497H52.9134V79.3701ZM56.6929 79.3701H60.4724V83.1497H56.6929V79.3701ZM60.4724 79.3701H64.252V83.1497H60.4724V79.3701ZM75.5905 79.3701H79.3701V83.1497H75.5905V79.3701ZM79.3701 79.3701H83.1496V83.1497H79.3701V79.3701ZM94.4882 79.3701H98.2677V83.1497H94.4882V79.3701ZM98.2677 79.3701H102.047V83.1497H98.2677V79.3701ZM102.047 79.3701H105.827V83.1497H102.047V79.3701ZM109.606 79.3701H113.386V83.1497H109.606V79.3701ZM120.945 79.3701H124.724V83.1497H120.945V79.3701ZM15.1181 83.1497H18.8976V86.9292H15.1181V83.1497ZM26.4567 83.1497H30.2362V86.9292H26.4567V83.1497ZM37.7953 83.1497H41.5748V86.9292H37.7953V83.1497ZM45.3543 83.1497H49.1339V86.9292H45.3543V83.1497ZM52.9134 83.1497H56.6929V86.9292H52.9134V83.1497ZM56.6929 83.1497H60.4724V86.9292H56.6929V83.1497ZM60.4724 83.1497H64.252V86.9292H60.4724V83.1497ZM64.252 83.1497H68.0315V86.9292H64.252V83.1497ZM79.3701 83.1497H83.1496V86.9292H79.3701V83.1497ZM90.7087 83.1497H94.4882V86.9292H90.7087V83.1497ZM94.4882 83.1497H98.2677V86.9292H94.4882V83.1497ZM102.047 83.1497H105.827V86.9292H102.047V83.1497ZM117.165 83.1497H120.945V86.9292H117.165V83.1497ZM120.945 83.1497H124.724V86.9292H120.945V83.1497ZM34.0157 86.9292H37.7953V90.7087H34.0157V86.9292ZM41.5748 86.9292H45.3543V90.7087H41.5748V86.9292ZM56.6929 86.9292H60.4724V90.7087H56.6929V86.9292ZM60.4724 86.9292H64.252V90.7087H60.4724V86.9292ZM64.252 86.9292H68.0315V90.7087H64.252V86.9292ZM71.811 86.9292H75.5905V90.7087H71.811V86.9292ZM75.5905 86.9292H79.3701V90.7087H75.5905V86.9292ZM79.3701 86.9292H83.1496V90.7087H79.3701V86.9292ZM90.7087 86.9292H94.4882V90.7087H90.7087V86.9292ZM94.4882 86.9292H98.2677V90.7087H94.4882V86.9292ZM117.165 86.9292H120.945V90.7087H117.165V86.9292ZM120.945 86.9292H124.724V90.7087H120.945V86.9292ZM15.1181 90.7087H18.8976V94.4882H15.1181V90.7087ZM22.6772 90.7087H26.4567V94.4882H22.6772V90.7087ZM26.4567 90.7087H30.2362V94.4882H26.4567V90.7087ZM30.2362 90.7087H34.0157V94.4882H30.2362V90.7087ZM34.0157 90.7087H37.7953V94.4882H34.0157V90.7087ZM37.7953 90.7087H41.5748V94.4882H37.7953V90.7087ZM45.3543 90.7087H49.1339V94.4882H45.3543V90.7087ZM52.9134 90.7087H56.6929V94.4882H52.9134V90.7087ZM68.0315 90.7087H71.811V94.4882H68.0315V90.7087ZM75.5905 90.7087H79.3701V94.4882H75.5905V90.7087ZM83.1496 90.7087H86.9291V94.4882H83.1496V90.7087ZM90.7087 90.7087H94.4882V94.4882H90.7087V90.7087ZM94.4882 90.7087H98.2677V94.4882H94.4882V90.7087ZM98.2677 90.7087H102.047V94.4882H98.2677V90.7087ZM102.047 90.7087H105.827V94.4882H102.047V90.7087ZM105.827 90.7087H109.606V94.4882H105.827V90.7087ZM113.386 90.7087H117.165V94.4882H113.386V90.7087ZM45.3543 94.4882H49.1339V98.2678H45.3543V94.4882ZM49.1339 94.4882H52.9134V98.2678H49.1339V94.4882ZM52.9134 94.4882H56.6929V98.2678H52.9134V94.4882ZM56.6929 94.4882H60.4724V98.2678H56.6929V94.4882ZM64.252 94.4882H68.0315V98.2678H64.252V94.4882ZM75.5905 94.4882H79.3701V98.2678H75.5905V94.4882ZM86.9291 94.4882H90.7087V98.2678H86.9291V94.4882ZM90.7087 94.4882H94.4882V98.2678H90.7087V94.4882ZM105.827 94.4882H109.606V98.2678H105.827V94.4882ZM113.386 94.4882H117.165V98.2678H113.386V94.4882ZM117.165 94.4882H120.945V98.2678H117.165V94.4882ZM120.945 94.4882H124.724V98.2678H120.945V94.4882ZM15.1181 98.2678H18.8976V102.047H15.1181V98.2678ZM18.8976 98.2678H22.6772V102.047H18.8976V98.2678ZM22.6772 98.2678H26.4567V102.047H22.6772V98.2678ZM26.4567 98.2678H30.2362V102.047H26.4567V98.2678ZM30.2362 98.2678H34.0157V102.047H30.2362V98.2678ZM34.0157 98.2678H37.7953V102.047H34.0157V98.2678ZM37.7953 98.2678H41.5748V102.047H37.7953V98.2678ZM49.1339 98.2678H52.9134V102.047H49.1339V98.2678ZM56.6929 98.2678H60.4724V102.047H56.6929V98.2678ZM60.4724 98.2678H64.252V102.047H60.4724V98.2678ZM64.252 98.2678H68.0315V102.047H64.252V98.2678ZM68.0315 98.2678H71.811V102.047H68.0315V98.2678ZM79.3701 98.2678H83.1496V102.047H79.3701V98.2678ZM90.7087 98.2678H94.4882V102.047H90.7087V98.2678ZM98.2677 98.2678H102.047V102.047H98.2677V98.2678ZM105.827 98.2678H109.606V102.047H105.827V98.2678ZM117.165 98.2678H120.945V102.047H117.165V98.2678ZM15.1181 102.047H18.8976V105.827H15.1181V102.047ZM37.7953 102.047H41.5748V105.827H37.7953V102.047ZM45.3543 102.047H49.1339V105.827H45.3543V102.047ZM49.1339 102.047H52.9134V105.827H49.1339V102.047ZM64.252 102.047H68.0315V105.827H64.252V102.047ZM83.1496 102.047H86.9291V105.827H83.1496V102.047ZM90.7087 102.047H94.4882V105.827H90.7087V102.047ZM105.827 102.047H109.606V105.827H105.827V102.047ZM109.606 102.047H113.386V105.827H109.606V102.047ZM113.386 102.047H117.165V105.827H113.386V102.047ZM117.165 102.047H120.945V105.827H117.165V102.047ZM15.1181 105.827H18.8976V109.606H15.1181V105.827ZM22.6772 105.827H26.4567V109.606H22.6772V105.827ZM26.4567 105.827H30.2362V109.606H26.4567V105.827ZM30.2362 105.827H34.0157V109.606H30.2362V105.827ZM37.7953 105.827H41.5748V109.606H37.7953V105.827ZM49.1339 105.827H52.9134V109.606H49.1339V105.827ZM52.9134 105.827H56.6929V109.606H52.9134V105.827ZM56.6929 105.827H60.4724V109.606H56.6929V105.827ZM68.0315 105.827H71.811V109.606H68.0315V105.827ZM71.811 105.827H75.5905V109.606H71.811V105.827ZM79.3701 105.827H83.1496V109.606H79.3701V105.827ZM90.7087 105.827H94.4882V109.606H90.7087V105.827ZM94.4882 105.827H98.2677V109.606H94.4882V105.827ZM98.2677 105.827H102.047V109.606H98.2677V105.827ZM102.047 105.827H105.827V109.606H102.047V105.827ZM105.827 105.827H109.606V109.606H105.827V105.827ZM117.165 105.827H120.945V109.606H117.165V105.827ZM120.945 105.827H124.724V109.606H120.945V105.827ZM15.1181 109.606H18.8976V113.386H15.1181V109.606ZM22.6772 109.606H26.4567V113.386H22.6772V109.606ZM26.4567 109.606H30.2362V113.386H26.4567V109.606ZM30.2362 109.606H34.0157V113.386H30.2362V109.606ZM37.7953 109.606H41.5748V113.386H37.7953V109.606ZM45.3543 109.606H49.1339V113.386H45.3543V109.606ZM49.1339 109.606H52.9134V113.386H49.1339V109.606ZM68.0315 109.606H71.811V113.386H68.0315V109.606ZM79.3701 109.606H83.1496V113.386H79.3701V109.606ZM86.9291 109.606H90.7087V113.386H86.9291V109.606ZM98.2677 109.606H102.047V113.386H98.2677V109.606ZM105.827 109.606H109.606V113.386H105.827V109.606ZM109.606 109.606H113.386V113.386H109.606V109.606ZM113.386 109.606H117.165V113.386H113.386V109.606ZM117.165 109.606H120.945V113.386H117.165V109.606ZM15.1181 113.386H18.8976V117.165H15.1181V113.386ZM22.6772 113.386H26.4567V117.165H22.6772V113.386ZM26.4567 113.386H30.2362V117.165H26.4567V113.386ZM30.2362 113.386H34.0157V117.165H30.2362V113.386ZM37.7953 113.386H41.5748V117.165H37.7953V113.386ZM60.4724 113.386H64.252V117.165H60.4724V113.386ZM75.5905 113.386H79.3701V117.165H75.5905V113.386ZM79.3701 113.386H83.1496V117.165H79.3701V113.386ZM86.9291 113.386H90.7087V117.165H86.9291V113.386ZM105.827 113.386H109.606V117.165H105.827V113.386ZM109.606 113.386H113.386V117.165H109.606V113.386ZM113.386 113.386H117.165V117.165H113.386V113.386ZM120.945 113.386H124.724V117.165H120.945V113.386ZM15.1181 117.165H18.8976V120.945H15.1181V117.165ZM37.7953 117.165H41.5748V120.945H37.7953V117.165ZM60.4724 117.165H64.252V120.945H60.4724V117.165ZM64.252 117.165H68.0315V120.945H64.252V117.165ZM71.811 117.165H75.5905V120.945H71.811V117.165ZM79.3701 117.165H83.1496V120.945H79.3701V117.165ZM83.1496 117.165H86.9291V120.945H83.1496V117.165ZM86.9291 117.165H90.7087V120.945H86.9291V117.165ZM90.7087 117.165H94.4882V120.945H90.7087V117.165ZM94.4882 117.165H98.2677V120.945H94.4882V117.165ZM98.2677 117.165H102.047V120.945H98.2677V117.165ZM105.827 117.165H109.606V120.945H105.827V117.165ZM117.165 117.165H120.945V120.945H117.165V117.165ZM15.1181 120.945H18.8976V124.724H15.1181V120.945ZM18.8976 120.945H22.6772V124.724H18.8976V120.945ZM22.6772 120.945H26.4567V124.724H22.6772V120.945ZM26.4567 120.945H30.2362V124.724H26.4567V120.945ZM30.2362 120.945H34.0157V124.724H30.2362V120.945ZM34.0157 120.945H37.7953V124.724H34.0157V120.945ZM37.7953 120.945H41.5748V124.724H37.7953V120.945ZM45.3543 120.945H49.1339V124.724H45.3543V120.945ZM49.1339 120.945H52.9134V124.724H49.1339V120.945ZM60.4724 120.945H64.252V124.724H60.4724V120.945ZM68.0315 120.945H71.811V124.724H68.0315V120.945ZM71.811 120.945H75.5905V124.724H71.811V120.945ZM75.5905 120.945H79.3701V124.724H75.5905V120.945ZM79.3701 120.945H83.1496V124.724H79.3701V120.945ZM90.7087 120.945H94.4882V124.724H90.7087V120.945ZM94.4882 120.945H98.2677V124.724H94.4882V120.945ZM98.2677 120.945H102.047V124.724H98.2677V120.945ZM102.047 120.945H105.827V124.724H102.047V120.945ZM105.827 120.945H109.606V124.724H105.827V120.945ZM117.165 120.945H120.945V124.724H117.165V120.945Z"
        fill="#171717" />
</svg>