<?xml version="1.0" encoding="UTF-8"?>
<svg id="Layer_2" data-name="Layer 2" xmlns="http://www.w3.org/2000/svg" xmlns:xlink="http://www.w3.org/1999/xlink" viewBox="0 0 1080 1080">
  <defs>
    <style>
      .cls-1 {
        fill: #5fa845;
      }

      .cls-2 {
        clip-path: url(#clippath);
      }

      .cls-3 {
        fill: none;
      }

      .cls-4 {
        fill: #252525;
      }

      .cls-5 {
        fill: #548c3f;
      }

      .cls-6 {
        fill: #a2a4a7;
      }

      .cls-7 {
        fill: #3d3f3f;
      }
    </style>
    <clipPath id="clippath">
      <circle class="cls-3" cx="540" cy="540" r="540"/>
    </clipPath>
  </defs>
  <g id="Layer_1-2" data-name="Layer 1">
    <g>
      <path class="cls-7" d="M540,0V1080C241.77,1080,0,838.23,0,540S241.77,0,540,0Z"/>
      <path class="cls-4" d="M1080,540c0,298.23-241.76,540-540,540V0c298.24,0,540,241.77,540,540Z"/>
      <g class="cls-2">
        <g>
          <polygon class="cls-5" points="860 720 540 1080 540 0 860 720"/>
          <polygon class="cls-1" points="540 0 540 1080 220 720 540 0"/>
          <polygon class="cls-5" points="860 720 940.82 901.85 1020 1080 1499.98 .03 860 720"/>
          <polygon class="cls-1" points="-420 0 60 1080 139.18 901.85 220 720 -420 0"/>
        </g>
      </g>
      <path class="cls-6" d="M540,30c68.86,0,135.65,13.48,198.51,40.07,60.73,25.69,115.27,62.46,162.12,109.31,46.85,46.85,83.62,101.39,109.31,162.12,26.59,62.86,40.07,129.64,40.07,198.51s-13.48,135.65-40.07,198.51c-25.69,60.73-62.46,115.27-109.31,162.12-46.85,46.85-101.39,83.62-162.12,109.31-62.86,26.59-129.64,40.07-198.51,40.07s-135.65-13.48-198.51-40.07c-60.73-25.69-115.27-62.46-162.12-109.31-46.85-46.85-83.62-101.39-109.31-162.12-26.59-62.86-40.07-129.64-40.07-198.51s13.48-135.65,40.07-198.51c25.69-60.73,62.46-115.27,109.31-162.12,46.85-46.85,101.39-83.62,162.12-109.31,62.86-26.59,129.64-40.07,198.51-40.07m0-30C241.77,0,0,241.77,0,540s241.77,540,540,540,540-241.77,540-540S838.24,0,540,0h0Z"/>
    </g>
  </g>
</svg>
